<svg height='300px' width='300px'  fill="#000000" xmlns="http://www.w3.org/2000/svg" data-name="Layer 1" viewBox="0 0 64 64" x="0px" y="0px"><title>blockchain-lock-secure-safe</title><path d="M46,10a1,1,0,0,1,1-1h6a1,1,0,0,1,1,1v1h2V8a1,1,0,0,0-1-1H45a1,1,0,0,0-1,1v3h2Z"></path><path d="M28,10a1,1,0,0,1,1-1h6a1,1,0,0,1,1,1v1h2V8a1,1,0,0,0-1-1H27a1,1,0,0,0-1,1v3h2Z"></path><path d="M23,32V47a1,1,0,0,0,1,1H40a1,1,0,0,0,1-1V32a1,1,0,0,0-1-1H24A1,1,0,0,0,23,32Zm9,1a3.989,3.989,0,0,1,3,6.63V45a1,1,0,0,1-1,1H30a1,1,0,0,1-1-1V39.63A3.989,3.989,0,0,1,32,33Z"></path><path d="M54,18a1,1,0,0,1-1,1H47a1,1,0,0,1-1-1V17H44v3a1,1,0,0,0,1,1H55a1,1,0,0,0,1-1V17H54Z"></path><path d="M36,18a1,1,0,0,1-1,1H29a1,1,0,0,1-1-1V17H26v3a1,1,0,0,0,1,1H37a1,1,0,0,0,1-1V17H36Z"></path><polygon points="53 13 53 15 57 15 60 15 60 13 57 13 53 13"></polygon><rect x="31" y="23" width="2" height="6"></rect><path d="M10,10a1,1,0,0,1,1-1h6a1,1,0,0,1,1,1v1h2V8a1,1,0,0,0-1-1H9A1,1,0,0,0,8,8v3h2Z"></path><polygon points="11 13 7 13 4 13 4 15 7 15 11 15 11 13"></polygon><path d="M18,18a1,1,0,0,1-1,1H11a1,1,0,0,1-1-1V17H8v3a1,1,0,0,0,1,1H19a1,1,0,0,0,1-1V17H18Z"></path><path d="M31,39.222V44h2V39.222a1,1,0,0,1,.33-.743A1.974,1.974,0,0,0,34,37a2,2,0,0,0-4,0,1.974,1.974,0,0,0,.67,1.479A1,1,0,0,1,31,39.222Z"></path><polygon points="29 13 25 13 21 13 17 13 17 15 21 15 25 15 29 15 29 13"></polygon><polygon points="47 13 43 13 39 13 35 13 35 15 39 15 43 15 47 15 47 13"></polygon><path d="M43.714,53.961l1.234,1.574c.562-.441,1.1-.914,1.615-1.4l-1.387-1.442A18.679,18.679,0,0,1,43.714,53.961Z"></path><path d="M28.832,59.763c.7.106,1.422.177,2.129.212l.1-2a19.3,19.3,0,0,1-1.928-.193Z"></path><path d="M36.82,57.383l.505,1.935a20.693,20.693,0,0,0,2.043-.647l-.7-1.873A19.01,19.01,0,0,1,36.82,57.383Z"></path><path d="M33,57.975l.1,2a21.271,21.271,0,0,0,2.129-.219l-.3-1.977A19.025,19.025,0,0,1,33,57.975Z"></path><path d="M40.443,56.026l.888,1.791A20.883,20.883,0,0,0,43.2,56.769L42.13,55.077A18.682,18.682,0,0,1,40.443,56.026Z"></path><path d="M24.688,58.69a20.841,20.841,0,0,0,2.045.644l.5-1.938a18.549,18.549,0,0,1-1.845-.579Z"></path><path d="M48.691,48.085l1.756.957a20.714,20.714,0,0,0,.928-1.93l-1.844-.773A18.9,18.9,0,0,1,48.691,48.085Z"></path><path d="M50.187,44.517l1.914.58a21.223,21.223,0,0,0,.515-2.078l-1.964-.381A19.014,19.014,0,0,1,50.187,44.517Z"></path><path d="M51,38.785V39c0,.574-.026,1.152-.077,1.719l1.992.179c.056-.626.085-1.264.085-1.9v-.24Z"></path><path d="M47.429,27.909a19.346,19.346,0,0,1,1.05,1.628l1.734-1a21.12,21.12,0,0,0-1.161-1.8Z"></path><path d="M49.359,31.264a19.2,19.2,0,0,1,.7,1.807l1.9-.625a21.107,21.107,0,0,0-.772-2Z"></path><path d="M52.867,36.626a21.053,21.053,0,0,0-.348-2.113l-1.954.425a18.838,18.838,0,0,1,.314,1.911Z"></path><path d="M46.5,51.276l1.525,1.293a20.9,20.9,0,0,0,1.3-1.7l-1.649-1.131A19.2,19.2,0,0,1,46.5,51.276Z"></path><path d="M12.025,32.5l1.9.619a18.565,18.565,0,0,1,.692-1.808L12.792,30.5A20.941,20.941,0,0,0,12.025,32.5Z"></path><path d="M16.542,27.951l-1.626-1.166a21.267,21.267,0,0,0-1.157,1.8l1.737.992A18.812,18.812,0,0,1,16.542,27.951Z"></path><path d="M11.126,36.685l1.989.216a19.119,19.119,0,0,1,.309-1.912l-1.955-.42A21.09,21.09,0,0,0,11.126,36.685Z"></path><path d="M20.853,56.8a21.086,21.086,0,0,0,1.87,1.044l.884-1.793a18.989,18.989,0,0,1-1.69-.945Z"></path><path d="M13,39v-.162l-2-.018V39c0,.651.03,1.311.09,1.961l1.992-.186C13.027,40.187,13,39.59,13,39Z"></path><path d="M13.359,42.693l-1.963.385a21.18,21.18,0,0,0,.521,2.078l1.913-.586A18.729,18.729,0,0,1,13.359,42.693Z"></path><path d="M17.48,54.172a21.2,21.2,0,0,0,1.619,1.4L20.33,54a19.106,19.106,0,0,1-1.467-1.268Z"></path><path d="M16.352,49.781l-1.645,1.137a20.624,20.624,0,0,0,1.3,1.7l1.521-1.3A19.361,19.361,0,0,1,16.352,49.781Z"></path><path d="M14.491,46.391l-1.842.779a20.96,20.96,0,0,0,.933,1.926l1.753-.963A19.137,19.137,0,0,1,14.491,46.391Z"></path></svg>