<svg height='300px' width='300px'  fill="#000000" xmlns="http://www.w3.org/2000/svg" xmlns:xlink="http://www.w3.org/1999/xlink" viewBox="0 0 105 105" version="1.1" x="0px" y="0px"><title>Fill 264</title><desc>Created with Sketch.</desc><g stroke="none" stroke-width="1" fill="none" fill-rule="evenodd"><g fill="#000000"><path d="M51,16.2264 L57,12.7294 L57,19.7254 L51,23.2234 L51,16.2264 Z M59,20.8794 L59,9.2644 L49,15.0734 L49,26.6884 L59,20.8794 Z"></path><path d="M86,58.6014 L92,55.1044 L92,62.1004 L86,65.5984 L86,58.6014 Z M94,63.2544 L94,51.6404 L84,57.4484 L84,69.0634 L94,63.2544 Z"></path><path d="M21,58.6014 L27,55.1044 L27,62.1004 L21,65.5984 L21,58.6014 Z M29,63.2544 L29,51.6404 L19,57.4484 L19,69.0634 L29,63.2544 Z"></path><path d="M46.0104,32.0764 L33.3944,24.7314 L34.9444,23.9714 L46.0104,32.0764 Z M32.0004,11.1384 L45.0004,14.4454 L45.0004,28.9274 L41.9594,26.6654 C41.0104,18.8744 35.3544,14.9664 35.1074,14.8004 L34.0034,16.4604 C34.0514,16.4934 38.1224,19.3694 39.5664,24.9454 L32.0004,19.4614 L32.0004,11.1384 Z M46.2434,2.3044 L58.3924,5.4134 L45.9484,12.5984 L33.7974,9.4894 L46.2434,2.3044 Z M60.0004,6.7854 L60.0004,21.7064 L47.0004,29.1664 L47.0004,14.2464 L60.0004,6.7854 Z M61.0964,25.6474 L48.0064,33.2384 L46.0344,32.0904 L59.2194,24.4764 L61.0964,25.6474 Z M67.3874,33.1654 L53.9944,40.8014 L49.5404,34.6614 L62.7684,26.9914 L67.3874,33.1654 Z M55.0004,44.9164 L55.0004,42.6954 L68.0004,35.1954 L68.0004,37.4154 L55.0004,44.9164 Z M32.2714,26.3924 L47.6484,35.2594 L53.0004,42.4384 L53.0004,44.9094 L32.3264,33.1324 L32.2714,26.3924 Z M30.3034,24.0404 L30.1664,34.2834 L53.7774,47.7904 L70.0004,38.5784 L70.0004,33.1374 L63.7924,24.9304 L61.2074,23.3434 L62.0004,22.8614 L62.0004,4.2764 L45.8534,0.1644 L30.0004,9.2734 L30.0004,20.4754 L33.0374,22.6374 L30.8114,23.7504 L30.3034,24.0404 Z"></path><path d="M16.8157,74.3271 L4.2087,66.9881 L5.7587,66.2281 L16.8157,74.3271 Z M2.9997,53.3951 L15.9997,56.7011 L15.9997,71.1851 L12.8667,68.9231 C11.9187,61.1321 6.2147,57.2231 5.9677,57.0571 L4.8417,58.7181 C4.8887,58.7501 9.0417,61.6271 10.4857,67.2031 L2.9997,61.7191 L2.9997,53.3951 Z M17.0577,44.5621 L29.2087,47.6711 L16.7637,54.8551 L4.6127,51.7461 L17.0577,44.5621 Z M30.9997,49.0421 L30.9997,63.9651 L17.9997,71.4251 L17.9997,56.5031 L30.9997,49.0421 Z M31.9117,67.9051 L18.8227,75.4951 L16.8497,74.3471 L30.0347,66.7351 L31.9117,67.9051 Z M38.2027,75.4231 L24.8087,83.0581 L20.3567,76.9181 L33.5837,69.2491 L38.2027,75.4231 Z M24.9997,87.4591 L24.9997,85.2371 L38.9997,77.4531 L38.9997,79.6731 L24.9997,87.4591 Z M3.0867,68.6491 L18.3067,77.5161 L22.9997,84.0051 L22.9997,86.8811 L2.9837,75.3891 L3.0867,68.6491 Z M1.1187,66.2971 L0.9807,76.5391 L24.6847,90.0481 L40.9997,80.8351 L40.9997,75.3941 L34.6997,67.1881 L32.1607,65.6021 L32.9997,65.1191 L32.9997,46.5341 L16.8527,42.4231 L0.9997,51.5301 L0.9997,62.7331 L3.9447,64.8941 L1.6727,66.0081 L1.1187,66.2971 Z"></path><path d="M90,87.3063 L90,85.0843 L103,77.5853 L103,79.8043 L90,87.3063 Z M67.816,68.7813 L82.921,77.6483 L88,84.8273 L88,87.2993 L67.598,75.5233 L67.816,68.7813 Z M81.55,74.4623 L68.939,67.1213 L70.49,66.3603 L81.55,74.4623 Z M68,53.5273 L81,56.8353 L81,71.3173 L77.73,69.0533 C76.783,61.2633 71.012,57.3563 70.765,57.1903 L69.606,58.8523 C69.654,58.8843 73.926,61.7343 75.368,67.3353 L68,61.8513 L68,53.5273 Z M81.788,44.6943 L93.938,47.8033 L81.493,54.9883 L69.342,51.8783 L81.788,44.6943 Z M96,49.1743 L96,64.0963 L83,71.5563 L83,56.6363 L96,49.1743 Z M96.641,68.0373 L83.552,75.6273 L81.58,74.4793 L94.764,66.8663 L96.641,68.0373 Z M102.932,75.5553 L89.538,83.1913 L85.086,77.0513 L98.313,69.3803 L102.932,75.5553 Z M99.065,67.3203 L96.843,65.7333 L98,65.2513 L98,46.6663 L81.853,42.5533 L66,51.6623 L66,62.8653 L68.81,65.0273 L66.47,66.1403 L65.884,66.4293 L65.728,76.6713 L89.06,90.1793 L105,80.9663 L105,75.5273 L99.065,67.3203 Z"></path><path d="M46.0059,103.9803 C47.0139,104.0693 48.0449,104.1243 49.0699,104.1453 L49.1109,102.1453 C48.1299,102.1263 47.1449,102.0733 46.1819,101.9883 L46.0059,103.9803 Z"></path><path d="M68.9805,97.8309 L69.8495,99.6319 C70.7565,99.1939 71.6695,98.7149 72.5635,98.2059 L71.5755,96.4679 C70.7195,96.9539 69.8465,97.4119 68.9805,97.8309"></path><path d="M34.0693,101.2889 C35.0293,101.6469 36.0073,101.9759 36.9783,102.2639 L37.5483,100.3469 C36.6213,100.0709 35.6863,99.7579 34.7683,99.4159 L34.0693,101.2889 Z"></path><path d="M28.4814,98.7635 C29.3804,99.2445 30.3064,99.7015 31.2324,100.1205 L32.0564,98.2985 C31.1714,97.8985 30.2874,97.4615 29.4264,96.9995 L28.4814,98.7635 Z"></path><path d="M39.9473,103.0399 C40.9433,103.2649 41.9573,103.4569 42.9623,103.6129 L43.2683,101.6369 C42.3083,101.4879 41.3393,101.3039 40.3863,101.0889 L39.9473,103.0399 Z"></path><path d="M23.2881,95.5106 C24.1181,96.1116 24.9741,96.6886 25.8311,97.2246 L26.8921,95.5296 C26.0731,95.0166 25.2551,94.4646 24.4601,93.8896 L23.2881,95.5106 Z"></path><path d="M74.0703,94.9325 L75.1753,96.6005 C76.0243,96.0365 76.8653,95.4395 77.6733,94.8235 L76.4603,93.2335 C75.6873,93.8225 74.8833,94.3945 74.0703,94.9325"></path><path d="M52.0459,102.1083 L52.1379,104.1063 C53.1559,104.0593 54.1849,103.9783 55.1939,103.8653 L54.9699,101.8773 C54.0049,101.9863 53.0209,102.0643 52.0459,102.1083"></path><path d="M78.7314,91.3778 L80.0454,92.8838 C80.8084,92.2188 81.5624,91.5138 82.2874,90.7888 L80.8734,89.3748 C80.1794,90.0678 79.4594,90.7408 78.7314,91.3778"></path><path d="M63.5449,100.0184 L64.1659,101.9184 C65.1389,101.6014 66.1079,101.2484 67.0469,100.8714 L66.2989,99.0154 C65.4009,99.3764 64.4759,99.7144 63.5449,100.0184"></path><path d="M57.8682,101.453 L58.2272,103.42 C59.2342,103.236 60.2412,103.017 61.2212,102.77 L60.7322,100.831 C59.7952,101.067 58.8312,101.276 57.8682,101.453"></path><path d="M68.7246,16.8895 C67.7876,16.4655 66.8326,16.0735 65.8886,15.7225 L65.1936,17.5975 C66.0946,17.9315 67.0046,18.3065 67.9006,18.7115 L68.7246,16.8895 Z"></path><path d="M74.125,19.7811 C73.26,19.2421 72.367,18.7251 71.472,18.2461 L70.528,20.0101 C71.385,20.4681 72.239,20.9631 73.066,21.4781 L74.125,19.7811 Z"></path><path d="M83.5889,27.5204 C82.8949,26.7814 82.1629,26.0524 81.4149,25.3564 L80.0519,26.8214 C80.7679,27.4874 81.4679,28.1824 82.1319,28.8894 L83.5889,27.5204 Z"></path><path d="M79.1055,23.3426 C78.3175,22.6986 77.4985,22.0726 76.6705,21.4826 L75.5085,23.1096 C76.3005,23.6756 77.0845,24.2756 77.8395,24.8916 L79.1055,23.3426 Z"></path><path d="M88.7939,38.4549 L90.5929,37.5819 C90.1479,36.6649 89.6569,35.7519 89.1359,34.8669 L87.4129,35.8849 C87.9079,36.7219 88.3719,37.5869 88.7939,38.4549"></path><path d="M87.4668,32.2801 C86.8858,31.4501 86.2618,30.6261 85.6118,29.8291 L84.0628,31.0941 C84.6818,31.8521 85.2758,32.6371 85.8278,33.4261 L87.4668,32.2801 Z"></path><path d="M12.5195,36.1991 L10.8025,35.1721 C10.2825,36.0441 9.7835,36.9471 9.3195,37.8591 L11.1025,38.7651 C11.5445,37.8941 12.0215,37.0301 12.5195,36.1991"></path><path d="M15.8535,31.3778 L14.2895,30.1338 C13.6505,30.9358 13.0365,31.7638 12.4605,32.5958 L14.1055,33.7318 C14.6555,32.9378 15.2435,32.1458 15.8535,31.3778"></path><path d="M19.7998,27.0438 L18.4148,25.6028 C17.6808,26.3068 16.9608,27.0458 16.2758,27.7978 L17.7538,29.1458 C18.4098,28.4258 19.0988,27.7188 19.7998,27.0438"></path><path d="M24.291,23.2743 L23.109,21.6613 C22.285,22.2643 21.474,22.9013 20.697,23.5533 L21.982,25.0853 C22.726,24.4613 23.503,23.8523 24.291,23.2743"></path></g></g></svg>