<svg height='300px' width='300px'  fill="#000000" xmlns="http://www.w3.org/2000/svg" data-name="Layer 1" viewBox="0 0 100 100" x="0px" y="0px"><title>Artboard 94</title><path d="M74,61v3.25H64V46.36a5.75,5.75,0,0,0-5.62-5.86H41.67a5.75,5.75,0,0,0-5.62,5.86V64.25H26V61l-8-3.76L10,61v8.5l8,3.76,8-3.76V66.25h10v18A5.72,5.72,0,0,0,41.67,90H58.33A5.72,5.72,0,0,0,64,84.2v-18H74V69.5l8,3.76,8-3.76V61l-8-3.76Zm-51.45.59L18,63.51l-4.33-2,4.31-2ZM12,62.89l5,2.35v5.34l-5-2.35Zm7,7.69V65.26l5-2.11v5.08ZM55.74,42.5a1.81,1.81,0,0,1-.39.86,1.11,1.11,0,0,1-.71.38H45.38a1.1,1.1,0,0,1-.73-.38,1.81,1.81,0,0,1-.39-.86ZM38.05,46.36a3.75,3.75,0,0,1,3.62-3.86h.58a4,4,0,0,0,1,2.25,3.1,3.1,0,0,0,2.15,1h9.28a3.1,3.1,0,0,0,2.15-1,4,4,0,0,0,1-2.25h.58A3.75,3.75,0,0,1,62,46.36V64.25H58V61l-8-3.76L42,61v3.25h-4ZM50,63.51l-4.33-2,4.31-2,4.55,2.14Zm-6-.62,5,2.35v5.34l-5-2.35Zm7,2.37,5-2.11v5.08l-5,2.35ZM62,84.2A3.71,3.71,0,0,1,58.33,88H41.67a3.71,3.71,0,0,1-3.62-3.8v-18h4V69.5l8,3.76,8-3.76V66.25h4Zm24.6-22.61L82,63.51l-4.33-2,4.31-2ZM76,62.89l5,2.35v5.34l-5-2.35Zm7,7.69V65.26l5-2.11v5.08Z"></path><polygon points="55.53 18.12 56.38 16.97 53.9 16.97 48.39 24.78 45.43 21.18 43.88 22.45 48.52 28.08 55.53 18.12"></polygon><path d="M50,34.13a12,12,0,1,0-12-12A12,12,0,0,0,50,34.13Zm0-22a10,10,0,1,1-10,10A10,10,0,0,1,50,12.13Z"></path></svg>